<svg width="20" height="20" viewBox="0 0 20 20" fill="none" xmlns="http://www.w3.org/2000/svg" class="aw__i1t7n4kh aw__i1t7n4kh--active"><path fill-rule="evenodd" clip-rule="evenodd" d="M9.99935 3.08366C6.17938 3.08366 3.08268 6.18036 3.08268 10.0003C3.08268 13.8203 6.17938 16.917 9.99935 16.917C13.8193 16.917 16.916 13.8203 16.916 10.0003C16.916 6.18036 13.8193 3.08366 9.99935 3.08366ZM1.91602 10.0003C1.91602 5.53602 5.53505 1.91699 9.99935 1.91699C14.4637 1.91699 18.0827 5.53602 18.0827 10.0003C18.0827 14.4646 14.4637 18.0837 9.99935 18.0837C5.53505 18.0837 1.91602 14.4646 1.91602 10.0003Z" fill="#222222"></path><path fill-rule="evenodd" clip-rule="evenodd" d="M9.99935 6.83366C8.59562 6.83366 7.45768 7.9716 7.45768 9.37533C7.45768 10.779 8.59562 11.917 9.99935 11.917C11.4031 11.917 12.541 10.779 12.541 9.37533C12.541 7.9716 11.4031 6.83366 9.99935 6.83366ZM6.29102 9.37533C6.29102 7.32727 7.95129 5.66699 9.99935 5.66699C12.0474 5.66699 13.7077 7.32727 13.7077 9.37533C13.7077 11.4234 12.0474 13.0837 9.99935 13.0837C7.95129 13.0837 6.29102 11.4234 6.29102 9.37533Z" fill="#222222"></path><path fill-rule="evenodd" clip-rule="evenodd" d="M10.0005 13.0837C9.06941 13.0837 8.15655 13.3415 7.36306 13.8285C6.56957 14.3156 5.92644 15.0128 5.50496 15.843C5.35912 16.1303 5.00802 16.2449 4.72075 16.0991C4.43349 15.9532 4.31884 15.6021 4.46469 15.3149C4.98369 14.2926 5.77564 13.434 6.75275 12.8342C7.72986 12.2345 8.85396 11.917 10.0005 11.917C11.1469 11.917 12.271 12.2345 13.2481 12.8342C14.2253 13.434 15.0172 14.2926 15.5362 15.3149C15.6821 15.6021 15.5674 15.9532 15.2801 16.0991C14.9929 16.2449 14.6418 16.1303 14.4959 15.843C14.0745 15.0128 13.4313 14.3156 12.6378 13.8285C11.8444 13.3415 10.9315 13.0837 10.0005 13.0837Z" fill="#222222"></path></svg>