<svg width="20" height="20" viewBox="0 0 20 20" fill="none" xmlns="http://www.w3.org/2000/svg" class="aw__i1ybsfil"><path fill-rule="evenodd" clip-rule="evenodd" d="M2.40348 2.39128V16.7194L4.64037 14.5516C4.78028 14.416 4.96748 14.3402 5.16231 14.3402H17.7011V2.39128H2.40348ZM1.23682 1.97461C1.23682 1.5604 1.5726 1.22461 1.98682 1.22461H18.1178C18.532 1.22461 18.8678 1.56039 18.8678 1.97461V14.7569C18.8678 15.1711 18.532 15.5069 18.1178 15.5069H5.33108L2.50876 18.242C2.033 18.703 1.23682 18.3659 1.23682 17.7034V1.97461Z" fill="#222222"></path><path fill-rule="evenodd" clip-rule="evenodd" d="M10.1959 4.14561C10.4876 3.85375 10.9603 3.85233 11.2537 4.14242L13.0985 5.9662C13.3948 6.25909 13.3956 6.73732 13.1003 7.03118L8.06457 12.0423C7.92403 12.1822 7.73382 12.2607 7.53554 12.2607H5.62223C5.25404 12.2607 4.95557 11.9622 4.95557 11.594V9.69962C4.95557 9.50078 5.03452 9.31008 5.17508 9.16944L10.1959 4.14561ZM10.7282 5.26344L6.12223 9.87213V11.094H7.36355L11.9796 6.50053L10.7282 5.26344Z" fill="#222222"></path><path d="M14.2439 12.1775H9.66895L11.3316 10.5332H14.2439C14.698 10.5332 15.0661 10.9013 15.0661 11.3554C15.0661 11.8094 14.698 12.1775 14.2439 12.1775Z" fill="#222222"></path></svg>