<svg width="20" height="20" viewBox="0 0 20 20" fill="none" xmlns="http://www.w3.org/2000/svg" class="aw__iarj1cv"><path d="M13.125 5.875H14.6875C15.1019 5.875 15.4993 6.03962 15.7924 6.33265C16.0854 6.62567 16.25 7.0231 16.25 7.4375V15.5625C16.25 15.9769 16.0854 16.3743 15.7924 16.6674C15.4993 16.9604 15.1019 17.125 14.6875 17.125H5.3125C4.8981 17.125 4.50067 16.9604 4.20765 16.6674C3.91462 16.3743 3.75 15.9769 3.75 15.5625V7.4375C3.75 7.0231 3.91462 6.62567 4.20765 6.33265C4.50067 6.03962 4.8981 5.875 5.3125 5.875H6.875" stroke="#222222" stroke-linecap="round" stroke-linejoin="round"></path><path d="M6.875 9.625L10 12.75L13.125 9.625M10 1.5V12.125" stroke="#222222" stroke-linecap="round" stroke-linejoin="round"></path></svg>